<?xml version="1.0" encoding="utf-8"?>
<!-- Generator: Adobe Illustrator 18.1.1, SVG Export Plug-In . SVG Version: 6.00 Build 0)  -->
<svg version="1.1" baseProfile="basic" id="icon-slidset"
	 xmlns="http://www.w3.org/2000/svg" xmlns:xlink="http://www.w3.org/1999/xlink" x="0px" y="0px" width="40px" height="40px"
	 viewBox="0 0 40 40" xml:space="preserve">
<path id="svg_1_1_" fill="#FFB105" d="M16,7v20h8V7H16L16,7z M17.3,25.3V8.7h5.3v16.7H17.3L17.3,25.3z"/>
<path id="svg_1_3_" fill="#FFB105" d="M29,7v20h8V7H29L29,7z M30.3,25.3V8.7h5.3v16.7H30.3L30.3,25.3z"/>
<path id="svg_1" fill="#FF9303" d="M1,5v24h12V5H1L1,5z M3,27V7h8v20H3L3,27z"/>
<path id="svg_2" fill="#FF9303" d="M14,5v24h12V5H14L14,5z M16,27V7h8v20H16L16,27z"/>
<path id="svg_3" fill="#FF9303" d="M27,5v24h12V5H27L27,5z M29,27V7h8v20H29L29,27z"/>
<circle id="svg_4" fill="#FFB105" cx="14" cy="36" r="2"/>
<circle id="svg_5" fill="#FF9303" cx="20" cy="36" r="2"/>
<circle id="svg_6" fill="#FF7601" cx="26" cy="36" r="2"/>
<ellipse id="svg_7" fill="#FFFFFF" stroke="#FF7601" stroke-width="2" cx="30.4" cy="10.5" rx="8.2" ry="8.2"/>
<line id="svg_8" fill="none" stroke="#FF7601" stroke-width="2" x1="27" y1="6.7" x2="34.2" y2="13.9"/>
<line id="svg_9" fill="none" stroke="#FF7601" stroke-width="2" x1="34.2" y1="6.7" x2="27" y2="13.9"/>
<path id="svg_1_2_" fill="#FFB105" d="M3,7v20h8V7H3L3,7z M4.3,25.3V8.7h5.3v16.7H4.3L4.3,25.3z"/>
</svg>
